<svg width="28" height="28" viewBox="0 0 28 28" fill="none" xmlns="http://www.w3.org/2000/svg">
    <mask id="path-1-inside-1_202_3175" fill="white">
        <path fill-rule="evenodd" clip-rule="evenodd"
              d="M15.3943 0.565905C14.6181 -0.188635 13.3824 -0.188635 12.6062 0.565905L0.609971 12.2271C-0.677485 13.4786 0.208526 15.6612 2.00402 15.6612H2.05005C2.60233 15.6612 3.05005 16.1089 3.05005 16.6612V24.9991C3.05005 26.656 4.3932 27.9991 6.05005 27.9991H9.01834C9.57063 27.9991 10.0183 27.5514 10.0183 26.9991V20.7175C10.0183 19.0606 11.3615 17.7175 13.0183 17.7175H14.9821C16.639 17.7175 17.9821 19.0606 17.9821 20.7175V26.9991C17.9821 27.5514 18.4298 27.9991 18.9821 27.9991H21.9504C23.6073 27.9991 24.9504 26.656 24.9504 24.9991V16.6612C24.9504 16.1089 25.3981 15.6612 25.9504 15.6612H25.9964C27.7919 15.6612 28.6779 13.4786 27.3905 12.2271L15.3943 0.565905Z"/>
    </mask>
    <path d="M12.6062 0.565905L11.5606 -0.509667V-0.509667L12.6062 0.565905ZM15.3943 0.565905L14.3487 1.64148L14.3487 1.64148L15.3943 0.565905ZM0.609971 12.2271L-0.435565 11.1516H-0.435566L0.609971 12.2271ZM27.3905 12.2271L26.3449 13.3027V13.3027L27.3905 12.2271ZM13.6517 1.64148C13.8458 1.45284 14.1547 1.45284 14.3487 1.64148L16.4398 -0.509665C15.0814 -1.83011 12.919 -1.83011 11.5606 -0.509667L13.6517 1.64148ZM1.65551 13.3027L13.6517 1.64148L11.5606 -0.509667L-0.435565 11.1516L1.65551 13.3027ZM2.00402 14.1612C1.55515 14.1612 1.33365 13.6156 1.65551 13.3027L-0.435566 11.1516C-2.68861 13.3417 -1.13809 17.1612 2.00402 17.1612V14.1612ZM2.05005 14.1612H2.00402V17.1612H2.05005V14.1612ZM1.55005 16.6612V24.9991H4.55005V16.6612H1.55005ZM1.55005 24.9991C1.55005 27.4844 3.56477 29.4991 6.05005 29.4991V26.4991C5.22162 26.4991 4.55005 25.8275 4.55005 24.9991H1.55005ZM6.05005 29.4991H9.01834V26.4991H6.05005V29.4991ZM11.5183 26.9991V20.7175H8.51834V26.9991H11.5183ZM11.5183 20.7175C11.5183 19.8891 12.1899 19.2175 13.0183 19.2175V16.2175C10.5331 16.2175 8.51834 18.2322 8.51834 20.7175H11.5183ZM13.0183 19.2175H14.9821V16.2175H13.0183V19.2175ZM14.9821 19.2175C15.8105 19.2175 16.4821 19.8891 16.4821 20.7175H19.4821C19.4821 18.2322 17.4674 16.2175 14.9821 16.2175V19.2175ZM16.4821 20.7175V26.9991H19.4821V20.7175H16.4821ZM18.9821 29.4991H21.9504V26.4991H18.9821V29.4991ZM21.9504 29.4991C24.4357 29.4991 26.4504 27.4844 26.4504 24.9991H23.4504C23.4504 25.8275 22.7788 26.4991 21.9504 26.4991V29.4991ZM26.4504 24.9991V16.6612H23.4504V24.9991H26.4504ZM25.9964 14.1612H25.9504V17.1612H25.9964V14.1612ZM26.3449 13.3027C26.6668 13.6156 26.4453 14.1612 25.9964 14.1612V17.1612C29.1385 17.1612 30.6891 13.3417 28.436 11.1516L26.3449 13.3027ZM14.3487 1.64148L26.3449 13.3027L28.436 11.1516L16.4398 -0.509666L14.3487 1.64148ZM26.4504 16.6612C26.4504 16.9374 26.2265 17.1612 25.9504 17.1612V14.1612C24.5697 14.1612 23.4504 15.2805 23.4504 16.6612H26.4504ZM16.4821 26.9991C16.4821 28.3798 17.6014 29.4991 18.9821 29.4991V26.4991C19.2582 26.4991 19.4821 26.723 19.4821 26.9991H16.4821ZM9.01834 29.4991C10.3991 29.4991 11.5183 28.3798 11.5183 26.9991H8.51834C8.51834 26.723 8.7422 26.4991 9.01834 26.4991V29.4991ZM2.05005 17.1612C1.77391 17.1612 1.55005 16.9374 1.55005 16.6612H4.55005C4.55005 15.2805 3.43076 14.1612 2.05005 14.1612V17.1612Z"
          fill="currentColor" mask="url(#path-1-inside-1_202_3175)"/>
</svg>
