<svg width="29" height="28" viewBox="0 0 29 28" fill="none" xmlns="http://www.w3.org/2000/svg">
    <path d="M9.98984 18.9893L20.2307 8.38266" stroke="currentColor" stroke-width="1.4" stroke-linecap="round"/>
    <circle cx="11.4916" cy="9.93823" r="2.45838" transform="rotate(-45 11.4916 9.93823)" stroke="currentColor"
            stroke-width="1.4"/>
    <circle cx="18.7288" cy="17.4341" r="2.45838" transform="rotate(-45 18.7288 17.4341)" stroke="currentColor"
            stroke-width="1.4"/>
    <path d="M13.9729 1.46589C14.4933 0.795052 15.5067 0.795051 16.0271 1.46589L17.1628 2.92974C17.8476 3.81243 19.0053 4.1822 20.075 3.85991L21.9162 3.30517C22.7466 3.05497 23.5845 3.67259 23.5912 4.53983L23.6034 6.11667C23.6125 7.28599 24.3732 8.31659 25.488 8.66972L27.0972 9.17948C27.9516 9.45014 28.2823 10.4839 27.7435 11.2002L26.8584 12.377C26.1354 13.3382 26.1354 14.6618 26.8584 15.623L27.7435 16.7998C28.2823 17.5161 27.9516 18.5499 27.0972 18.8205L25.488 19.3303C24.3732 19.6834 23.6125 20.714 23.6034 21.8833L23.5912 23.4602C23.5845 24.3274 22.7466 24.945 21.9162 24.6948L20.075 24.1401C19.0053 23.8178 17.8476 24.1876 17.1628 25.0703L16.0271 26.5341C15.5067 27.2049 14.4933 27.2049 13.9729 26.5341L12.8372 25.0703C12.1524 24.1876 10.9947 23.8178 9.925 24.1401L8.0838 24.6948C7.2534 24.945 6.41552 24.3274 6.4088 23.4602L6.3966 21.8833C6.38755 20.714 5.6268 19.6834 4.51204 19.3303L2.90284 18.8205C2.04839 18.5499 1.71773 17.5161 2.2565 16.7998L3.14164 15.623C3.86464 14.6618 3.86463 13.3382 3.14164 12.377L2.2565 11.2002C1.71773 10.4839 2.04839 9.45015 2.90283 9.17948L4.51204 8.66972C5.6268 8.31659 6.38755 7.286 6.3966 6.11667L6.4088 4.53983C6.41552 3.67259 7.2534 3.05497 8.08379 3.30517L9.925 3.85991C10.9947 4.1822 12.1524 3.81243 12.8372 2.92974L13.9729 1.46589Z"
          stroke="currentColor" stroke-width="1.4"/>
</svg>
